<svg xmlns="http://www.w3.org/2000/svg" xmlns:xlink="http://www.w3.org/1999/xlink" id="Layer_1" x="0" y="0" version="1.1" viewBox="0 0 500 500" xml:space="preserve" style="enable-background:new 0 0 500 500"><style type="text/css">.st0{fill:#036}</style><g id="XMLID_1_"><rect id="XMLID_6_" width="21.6" height="101.9" x="230" y="212.7" class="st0"/><path id="XMLID_10_" d="M402.2,213h-7.8H381h-7.8l-27.3,91.9l-17.9-25.2c8.1-3,13.1-12.2,13.1-21.4v-26 c0-11.7-7.6-19.4-19.3-19.4h-33.2H266v102h21v-34h20.7l21.7,34h23.5h-0.2h11.4l23.5-79.7l11.9,39.7h-11.9l-8.3,19h25.5l6.3,21h21.3 L402.2,213z M322,250.5c0,5.9-3.3,12.5-9.5,12.5H287v-31.1l0.4,0.1h25.1c6.2,0,9.5,3.4,9.5,9.3V250.5z" class="st0"/><path id="XMLID_18_" d="M214.3,293v-80.3h-20.9v75.6c0,11.9-5.6,12.8-7,13.3c-2.6,1-7.1,1.6-7.1,1.6l5,18.1 C218,320.4,214.3,293,214.3,293" class="st0"/><path id="XMLID_19_" d="M140.5,264.8c30.8-30.3,29.8-51.7,29.8-51.7c0-5.1-4.4-2.3-4.4-2.3c-8.2,6.6-20,6.8-20,6.8 c-3.4,14.7-22,33-26.7,37.4c-3.2-2.9-23.8-22.2-27.4-37.8c0,0-11.8,0-20-6.6c0,0-4.4-2.6-4.4,2.4l0,0c0,0-1,20.7,29.8,50.9 c30.8,30.3,34.3,42.9,32.6,50.9h22.4c0,0,1.3-23.2-17-45.2C137,268.2,138.7,266.6,140.5,264.8z" class="st0"/><path id="XMLID_20_" d="M114.9,294c-4-5.1-9.3-11.2-16.3-18.3c-14.3,20.6-13.2,40.9-13.2,40.9h22.4 C106.9,311.3,107.7,304.7,114.9,294" class="st0"/><path id="XMLID_21_" d="M107.6,219.2h22.2c0,0,2.9-0.4,2.2,3.4c-1,5.5-13,16.5-13,16.5s-8.8-8.1-12.7-15.8 C106.4,223.4,104.8,219.2,107.6,219.2" class="st0"/><path id="XMLID_22_" d="M157.9,196.2c0,5.4-4.3,9.7-9.7,9.7s-9.7-4.3-9.7-9.7c0-5.4,4.3-9.7,9.7-9.7 C153.5,186.5,157.9,190.9,157.9,196.2" class="st0"/><path id="XMLID_23_" d="M100.7,196.2c0,5.4-4.3,9.7-9.7,9.7c-5.4,0-9.7-4.3-9.7-9.7c0-5.4,4.3-9.7,9.7-9.7 C96.4,186.5,100.7,190.9,100.7,196.2" class="st0"/><path id="XMLID_24_" d="M129.9,188.4c0,5.4-4.3,9.7-9.7,9.7s-9.7-4.3-9.7-9.7c0-5.4,4.3-9.7,9.7-9.7 S129.9,183,129.9,188.4" class="st0"/></g></svg>