<?xml version="1.0" encoding="UTF-8"?> <!-- Generator: Adobe Illustrator 23.0.3, SVG Export Plug-In . SVG Version: 6.00 Build 0) --> <svg xmlns="http://www.w3.org/2000/svg" xmlns:xlink="http://www.w3.org/1999/xlink" id="Layer_1" x="0px" y="0px" viewBox="0 0 189.2 189.2" style="enable-background:new 0 0 189.2 189.2;" xml:space="preserve"> <style type="text/css"> .st0{fill:url(#SVGID_1_);} .st1{fill:#FFFFFF;} .st2{fill:#81B5A1;} </style> <g> <g> <g> <linearGradient id="SVGID_1_" gradientUnits="userSpaceOnUse" x1="93.4454" y1="6.5888" x2="95.6795" y2="173.4047" gradientTransform="matrix(1 0 0 -1 0 187.4)"> <stop offset="0" style="stop-color:#293E41"></stop> <stop offset="1" style="stop-color:#384E50"></stop> </linearGradient> <circle class="st0" cx="94.6" cy="94.6" r="94.6"></circle> </g> <g> <path class="st1" d="M31.6,112.2V77.8h8.9v2.7c2.7-2.2,6.2-3.5,9.7-3.5c4.5,0,8.9,2.1,11.9,5.5c2.3,2.7,3.5,6.2,3.5,12.1v17.6 h-9.2V94c0.3-2.4-0.4-4.7-2-6.5c-1.4-1.3-3.2-2-5.2-1.9c-3.2,0.1-6.3,1.6-8.3,4.2v22.4H31.6z"></path> <path class="st2" d="M89.2,107.3c-2.7,0.1-5.2-1-7.1-2.9s-2.9-4.5-2.9-7.1c-0.2-3.7,1.7-7.2,4.9-9.1c3.2-2,7.2-2,10.3,0 c3.2,1.9,5,5.4,4.8,9.1c0.1,2.7-0.9,5.2-2.8,7.1S91.9,107.4,89.2,107.3L89.2,107.3z M89.2,77.1c-8.2,0-15.7,5-18.6,12.7 c-3.1,7.7-1.2,16.4,4.8,22.1c1.4,1.4,3.7,1.5,5.2,0.3c5-3.9,12.1-3.9,17.1,0c1.6,1.2,3.8,1,5.2-0.3c5.9-5.6,7.9-14.3,4.9-22 C104.7,82.2,97.4,77.2,89.2,77.1z"></path> <polygon class="st1" points="127.3,112.2 120.5,112.2 106.8,77.8 115.9,77.8 123.5,97.5 130.8,77.8 138.4,77.8 145.7,97.5 153.2,77.8 162.4,77.8 148.8,112.2 142,112.2 134.6,92.6 "></polygon> </g> </g> </g> </svg> 