<svg xmlns="http://www.w3.org/2000/svg" width="2500" height="2458" viewBox="-0.13 0 32.423 32"><circle cx="17" cy="6" r="4.667" fill="#7b83eb"/><path d="M16.667 7H12.44l.021.093.002.008.022.086A4.671 4.671 0 0 0 18 10.559V8.333A1.337 1.337 0 0 0 16.667 7z" opacity=".1"/><path d="M15.667 8h-2.884A4.667 4.667 0 0 0 17 10.667V9.333A1.337 1.337 0 0 0 15.667 8z" opacity=".2"/><circle cx="27.5" cy="7.5" r="3.5" fill="#5059c9"/><path fill="#5059c9" d="M30.5 12h-7.861a.64.64 0 0 0-.64.64v8.11a5.121 5.121 0 0 0 3.967 5.084A5.006 5.006 0 0 0 32 20.938V13.5a1.5 1.5 0 0 0-1.5-1.5z"/><path fill="#7b83eb" d="M25 13.5V23a7.995 7.995 0 0 1-14.92 4 7.173 7.173 0 0 1-.5-1 8.367 8.367 0 0 1-.33-1A8.24 8.24 0 0 1 9 23v-9.5a1.498 1.498 0 0 1 1.5-1.5h13a1.498 1.498 0 0 1 1.5 1.5z"/><path d="M15.667 8h-2.884A4.667 4.667 0 0 0 17 10.667V9.333A1.337 1.337 0 0 0 15.667 8z" opacity=".2"/><path d="M18 12v12.67a1.32 1.32 0 0 1-1.04 1.29.966.966 0 0 1-.29.04H9.58a8.367 8.367 0 0 1-.33-1A8.24 8.24 0 0 1 9 23v-9.5a1.498 1.498 0 0 1 1.5-1.5z" opacity=".1"/><path d="M17 12v13.67a.967.967 0 0 1-.04.29A1.32 1.32 0 0 1 15.67 27h-5.59a7.173 7.173 0 0 1-.5-1 8.367 8.367 0 0 1-.33-1A8.24 8.24 0 0 1 9 23v-9.5a1.498 1.498 0 0 1 1.5-1.5z" opacity=".2"/><path d="M17 12v11.67A1.336 1.336 0 0 1 15.67 25H9.25A8.24 8.24 0 0 1 9 23v-9.5a1.498 1.498 0 0 1 1.5-1.5z" opacity=".2"/><path d="M10.5 12A1.498 1.498 0 0 0 9 13.5V23a8.24 8.24 0 0 0 .25 2h5.42A1.336 1.336 0 0 0 16 23.67V12z" opacity=".2"/><path fill="#4b53bc" d="M1.333 8h13.334A1.333 1.333 0 0 1 16 9.333v13.334A1.333 1.333 0 0 1 14.667 24H1.333A1.333 1.333 0 0 1 0 22.667V9.333A1.333 1.333 0 0 1 1.333 8z"/><path fill="#fff" d="M11.98 12.975H8.99v8.02H7.028v-8.02H4.02v-1.97h7.96z"/><path fill="none" d="M0 0h32v32H0z"/></svg>